<?xml version="1.0" encoding="us-ascii" standalone="no"?><svg xmlns="http://www.w3.org/2000/svg" xmlns:xlink="http://www.w3.org/1999/xlink" contentStyleType="text/css" height="991px" preserveAspectRatio="none" style="width:1750px;height:991px;background:#FFFFFF;" version="1.1" viewBox="0 0 1750 991" width="1750px" zoomAndPan="magnify"><defs/><g><!--class CBS--><g id="elem_CBS"><rect codeLine="7" fill="#F1F1F1" height="143.3396" id="CBS" rx="2.5" ry="2.5" style="stroke:#181818;stroke-width:0.5;" width="288" x="227.99" y="7"/><ellipse cx="354.74" cy="23" fill="#ADD1B2" rx="11" ry="11" style="stroke:#181818;stroke-width:1.0;"/><path d="M358.8494,29 L351.1306,29 L351.1306,16.6094 L358.8494,16.6094 L358.8494,18.7656 L353.5838,18.7656 L353.5838,21.4375 L358.3494,21.4375 L358.3494,23.5938 L353.5838,23.5938 L353.5838,26.8438 L358.8494,26.8438 L358.8494,29 Z " fill="#000000"/><text fill="#000000" font-family="sans-serif" font-size="14" lengthAdjust="spacing" textLength="26" x="375.24" y="28.432">CBS</text><line style="stroke:#181818;stroke-width:0.5;" x1="228.99" x2="514.99" y1="39" y2="39"/><ellipse cx="238.99" cy="54.034" fill="#000000" rx="3" ry="3" style="stroke:#000000;stroke-width:1.0;"/><text fill="#000000" font-family="sans-serif" font-size="14" lengthAdjust="spacing" textLength="166" x="247.99" y="57.9659">gwb_code &#171;primary_key&#187;</text><ellipse cx="238.99" cy="73.1019" fill="#000000" rx="3" ry="3" style="stroke:#000000;stroke-width:1.0;"/><text fill="#000000" font-family="sans-serif" font-size="14" lengthAdjust="spacing" textLength="98" x="247.99" y="77.0339">regio &#171;names&#187;</text><ellipse cx="238.99" cy="92.1698" fill="#000000" rx="3" ry="3" style="stroke:#000000;stroke-width:1.0;"/><text fill="#000000" font-family="sans-serif" font-size="14" lengthAdjust="spacing" textLength="262" x="247.99" y="96.1018">recs &#171;Land | Gemeente | Wijk | Buurt&#187;</text><ellipse cx="238.99" cy="111.2377" fill="#000000" rx="3" ry="3" style="stroke:#000000;stroke-width:1.0;"/><text fill="#000000" font-family="sans-serif" font-size="14" lengthAdjust="spacing" textLength="109" x="247.99" y="115.1697">geom &#171;borders&#187;</text><text fill="#000000" font-family="sans-serif" font-size="14" lengthAdjust="spacing" textLength="122" x="247.99" y="134.2376">demographic_info</text><line style="stroke:#181818;stroke-width:0.5;" x1="228.99" x2="514.99" y1="142.3396" y2="142.3396"/></g><!--class Graph_nodes--><g id="elem_Graph_nodes"><rect codeLine="16" fill="#F1F1F1" height="143.3396" id="Graph_nodes" rx="2.5" ry="2.5" style="stroke:#181818;stroke-width:0.5;" width="227" x="843.49" y="449"/><ellipse cx="908.24" cy="465" fill="#ADD1B2" rx="11" ry="11" style="stroke:#181818;stroke-width:1.0;"/><path d="M912.3494,471 L904.6306,471 L904.6306,458.6094 L912.3494,458.6094 L912.3494,460.7656 L907.0838,460.7656 L907.0838,463.4375 L911.8494,463.4375 L911.8494,465.5938 L907.0838,465.5938 L907.0838,468.8438 L912.3494,468.8438 L912.3494,471 Z " fill="#000000"/><text fill="#000000" font-family="sans-serif" font-size="14" lengthAdjust="spacing" textLength="89" x="928.74" y="470.432">Graph_nodes</text><line style="stroke:#181818;stroke-width:0.5;" x1="844.49" x2="1069.49" y1="481" y2="481"/><ellipse cx="854.49" cy="496.034" fill="#000000" rx="3" ry="3" style="stroke:#000000;stroke-width:1.0;"/><text fill="#000000" font-family="sans-serif" font-size="14" lengthAdjust="spacing" textLength="152" x="863.49" y="499.9659">node_id &#171;primary_key&#187;</text><ellipse cx="854.49" cy="515.1019" fill="#000000" rx="3" ry="3" style="stroke:#000000;stroke-width:1.0;"/><text fill="#000000" font-family="sans-serif" font-size="14" lengthAdjust="spacing" textLength="83" x="863.49" y="519.0339">street_count</text><ellipse cx="854.49" cy="534.1698" fill="#000000" rx="3" ry="3" style="stroke:#000000;stroke-width:1.0;"/><text fill="#000000" font-family="sans-serif" font-size="14" lengthAdjust="spacing" textLength="80" x="863.49" y="538.1018">loc &#171;POINT&#187;</text><text fill="#000000" font-family="sans-serif" font-size="14" lengthAdjust="spacing" textLength="201" x="863.49" y="557.1697">neighborhood &#171;performance&#187;</text><text fill="#000000" font-family="sans-serif" font-size="14" lengthAdjust="spacing" textLength="66" x="863.49" y="576.2376">node_info</text><line style="stroke:#181818;stroke-width:0.5;" x1="844.49" x2="1069.49" y1="584.3396" y2="584.3396"/></g><!--class Graph_edges--><g id="elem_Graph_edges"><rect codeLine="24" fill="#F1F1F1" height="143.3396" id="Graph_edges" rx="2.5" ry="2.5" style="stroke:#181818;stroke-width:0.5;" width="178" x="868.99" y="219"/><ellipse cx="909.64" cy="235" fill="#ADD1B2" rx="11" ry="11" style="stroke:#181818;stroke-width:1.0;"/><path d="M913.7494,241 L906.0306,241 L906.0306,228.6094 L913.7494,228.6094 L913.7494,230.7656 L908.4838,230.7656 L908.4838,233.4375 L913.2494,233.4375 L913.2494,235.5938 L908.4838,235.5938 L908.4838,238.8438 L913.7494,238.8438 L913.7494,241 Z " fill="#000000"/><text fill="#000000" font-family="sans-serif" font-size="14" lengthAdjust="spacing" textLength="89" x="929.34" y="240.432">Graph_edges</text><line style="stroke:#181818;stroke-width:0.5;" x1="869.99" x2="1045.99" y1="251" y2="251"/><ellipse cx="879.99" cy="266.034" fill="#000000" rx="3" ry="3" style="stroke:#000000;stroke-width:1.0;"/><text fill="#000000" font-family="sans-serif" font-size="14" lengthAdjust="spacing" textLength="152" x="888.99" y="269.9659">edge_id &#171;primary_key&#187;</text><ellipse cx="879.99" cy="285.1019" fill="#000000" rx="3" ry="3" style="stroke:#000000;stroke-width:1.0;"/><text fill="#000000" font-family="sans-serif" font-size="14" lengthAdjust="spacing" textLength="42" x="888.99" y="289.0339">node1</text><ellipse cx="879.99" cy="304.1698" fill="#000000" rx="3" ry="3" style="stroke:#000000;stroke-width:1.0;"/><text fill="#000000" font-family="sans-serif" font-size="14" lengthAdjust="spacing" textLength="42" x="888.99" y="308.1018">node2</text><ellipse cx="879.99" cy="323.2377" fill="#000000" rx="3" ry="3" style="stroke:#000000;stroke-width:1.0;"/><text fill="#000000" font-family="sans-serif" font-size="14" lengthAdjust="spacing" textLength="44" x="888.99" y="327.1697">length</text><text fill="#000000" font-family="sans-serif" font-size="14" lengthAdjust="spacing" textLength="66" x="888.99" y="346.2376">edge_info</text><line style="stroke:#181818;stroke-width:0.5;" x1="869.99" x2="1045.99" y1="354.3396" y2="354.3396"/></g><!--class Graph_nodes_accessible--><g id="elem_Graph_nodes_accessible"><rect codeLine="33" fill="#F1F1F1" height="143.3396" id="Graph_nodes_accessible" rx="2.5" ry="2.5" style="stroke:#181818;stroke-width:0.5;" width="227" x="519.49" y="219"/><ellipse cx="548.44" cy="235" fill="#ADD1B2" rx="11" ry="11" style="stroke:#181818;stroke-width:1.0;"/><path d="M552.5494,241 L544.8306,241 L544.8306,228.6094 L552.5494,228.6094 L552.5494,230.7656 L547.2838,230.7656 L547.2838,233.4375 L552.0494,233.4375 L552.0494,235.5938 L547.2838,235.5938 L547.2838,238.8438 L552.5494,238.8438 L552.5494,241 Z " fill="#000000"/><text fill="#000000" font-family="sans-serif" font-size="14" lengthAdjust="spacing" textLength="164" x="565.54" y="240.432">Graph_nodes_accessible</text><line style="stroke:#181818;stroke-width:0.5;" x1="520.49" x2="745.49" y1="251" y2="251"/><ellipse cx="530.49" cy="266.034" fill="#000000" rx="3" ry="3" style="stroke:#000000;stroke-width:1.0;"/><text fill="#000000" font-family="sans-serif" font-size="14" lengthAdjust="spacing" textLength="152" x="539.49" y="269.9659">node_id &#171;primary_key&#187;</text><ellipse cx="530.49" cy="285.1019" fill="#000000" rx="3" ry="3" style="stroke:#000000;stroke-width:1.0;"/><text fill="#000000" font-family="sans-serif" font-size="14" lengthAdjust="spacing" textLength="83" x="539.49" y="289.0339">street_count</text><ellipse cx="530.49" cy="304.1698" fill="#000000" rx="3" ry="3" style="stroke:#000000;stroke-width:1.0;"/><text fill="#000000" font-family="sans-serif" font-size="14" lengthAdjust="spacing" textLength="80" x="539.49" y="308.1018">loc &#171;POINT&#187;</text><text fill="#000000" font-family="sans-serif" font-size="14" lengthAdjust="spacing" textLength="201" x="539.49" y="327.1697">neighborhood &#171;performance&#187;</text><text fill="#000000" font-family="sans-serif" font-size="14" lengthAdjust="spacing" textLength="66" x="539.49" y="346.2376">node_info</text><line style="stroke:#181818;stroke-width:0.5;" x1="520.49" x2="745.49" y1="354.3396" y2="354.3396"/></g><!--class Bus_stations--><g id="elem_Bus_stations"><rect codeLine="42" fill="#F1F1F1" height="105.2038" id="Bus_stations" rx="2.5" ry="2.5" style="stroke:#181818;stroke-width:0.5;" width="193" x="1098.49" y="238"/><ellipse cx="1148.74" cy="254" fill="#ADD1B2" rx="11" ry="11" style="stroke:#181818;stroke-width:1.0;"/><path d="M1152.8494,260 L1145.1306,260 L1145.1306,247.6094 L1152.8494,247.6094 L1152.8494,249.7656 L1147.5838,249.7656 L1147.5838,252.4375 L1152.3494,252.4375 L1152.3494,254.5938 L1147.5838,254.5938 L1147.5838,257.8438 L1152.8494,257.8438 L1152.8494,260 Z " fill="#000000"/><text fill="#000000" font-family="sans-serif" font-size="14" lengthAdjust="spacing" textLength="84" x="1169.24" y="259.432">Bus_stations</text><line style="stroke:#181818;stroke-width:0.5;" x1="1099.49" x2="1290.49" y1="270" y2="270"/><ellipse cx="1109.49" cy="285.034" fill="#000000" rx="3" ry="3" style="stroke:#000000;stroke-width:1.0;"/><text fill="#000000" font-family="sans-serif" font-size="14" lengthAdjust="spacing" textLength="167" x="1118.49" y="288.9659">feature_id &#171;primary_key&#187;</text><ellipse cx="1109.49" cy="304.1019" fill="#000000" rx="3" ry="3" style="stroke:#000000;stroke-width:1.0;"/><text fill="#000000" font-family="sans-serif" font-size="14" lengthAdjust="spacing" textLength="152" x="1118.49" y="308.0339">node_id &#171;primary_key&#187;</text><ellipse cx="1109.49" cy="323.1698" fill="#000000" rx="3" ry="3" style="stroke:#000000;stroke-width:1.0;"/><text fill="#000000" font-family="sans-serif" font-size="14" lengthAdjust="spacing" textLength="53" x="1118.49" y="327.1018">location</text><line style="stroke:#181818;stroke-width:0.5;" x1="1099.49" x2="1290.49" y1="335.2038" y2="335.2038"/></g><!--class Bus_stations_to_move--><g id="elem_Bus_stations_to_move"><rect codeLine="49" fill="#F1F1F1" height="143.3396" id="Bus_stations_to_move" rx="2.5" ry="2.5" style="stroke:#181818;stroke-width:0.5;" width="177" x="1342.49" y="219"/><ellipse cx="1357.49" cy="235" fill="#ADD1B2" rx="11" ry="11" style="stroke:#181818;stroke-width:1.0;"/><path d="M1361.5994,241 L1353.8806,241 L1353.8806,228.6094 L1361.5994,228.6094 L1361.5994,230.7656 L1356.3338,230.7656 L1356.3338,233.4375 L1361.0994,233.4375 L1361.0994,235.5938 L1356.3338,235.5938 L1356.3338,238.8438 L1361.5994,238.8438 L1361.5994,241 Z " fill="#000000"/><text fill="#000000" font-family="sans-serif" font-size="14" lengthAdjust="spacing" textLength="145" x="1371.49" y="240.432">Bus_stations_to_move</text><line style="stroke:#181818;stroke-width:0.5;" x1="1343.49" x2="1518.49" y1="251" y2="251"/><ellipse cx="1353.49" cy="266.034" fill="#000000" rx="3" ry="3" style="stroke:#000000;stroke-width:1.0;"/><text fill="#000000" font-family="sans-serif" font-size="14" lengthAdjust="spacing" textLength="68" x="1362.49" y="269.9659">feature_id</text><ellipse cx="1353.49" cy="285.1019" fill="#000000" rx="3" ry="3" style="stroke:#000000;stroke-width:1.0;"/><text fill="#000000" font-family="sans-serif" font-size="14" lengthAdjust="spacing" textLength="61" x="1362.49" y="289.0339">old_node</text><ellipse cx="1353.49" cy="304.1698" fill="#000000" rx="3" ry="3" style="stroke:#000000;stroke-width:1.0;"/><text fill="#000000" font-family="sans-serif" font-size="14" lengthAdjust="spacing" textLength="68" x="1362.49" y="308.1018">new_node</text><ellipse cx="1353.49" cy="323.2377" fill="#000000" rx="3" ry="3" style="stroke:#000000;stroke-width:1.0;"/><text fill="#000000" font-family="sans-serif" font-size="14" lengthAdjust="spacing" textLength="46" x="1362.49" y="327.1697">old_loc</text><ellipse cx="1353.49" cy="342.3056" fill="#000000" rx="3" ry="3" style="stroke:#000000;stroke-width:1.0;"/><text fill="#000000" font-family="sans-serif" font-size="14" lengthAdjust="spacing" textLength="53" x="1362.49" y="346.2376">new_loc</text><line style="stroke:#181818;stroke-width:0.5;" x1="1343.49" x2="1518.49" y1="354.3396" y2="354.3396"/></g><!--class Neighborhood_pts--><g id="elem_Neighborhood_pts"><rect codeLine="59" fill="#F1F1F1" height="105.2038" id="Neighborhood_pts" rx="2.5" ry="2.5" style="stroke:#181818;stroke-width:0.5;" width="192" x="275.99" y="468"/><ellipse cx="306.74" cy="484" fill="#ADD1B2" rx="11" ry="11" style="stroke:#181818;stroke-width:1.0;"/><path d="M310.8494,490 L303.1306,490 L303.1306,477.6094 L310.8494,477.6094 L310.8494,479.7656 L305.5838,479.7656 L305.5838,482.4375 L310.3494,482.4375 L310.3494,484.5938 L305.5838,484.5938 L305.5838,487.8438 L310.8494,487.8438 L310.8494,490 Z " fill="#000000"/><text fill="#000000" font-family="sans-serif" font-size="14" lengthAdjust="spacing" textLength="125" x="324.24" y="489.432">Neighborhood_pts</text><line style="stroke:#181818;stroke-width:0.5;" x1="276.99" x2="466.99" y1="500" y2="500"/><ellipse cx="286.99" cy="515.034" fill="#000000" rx="3" ry="3" style="stroke:#000000;stroke-width:1.0;"/><text fill="#000000" font-family="sans-serif" font-size="14" lengthAdjust="spacing" textLength="166" x="295.99" y="518.9659">gwb_code &#171;primary_key&#187;</text><ellipse cx="286.99" cy="534.1019" fill="#000000" rx="3" ry="3" style="stroke:#000000;stroke-width:1.0;"/><text fill="#000000" font-family="sans-serif" font-size="14" lengthAdjust="spacing" textLength="112" x="295.99" y="538.0339">id &#171;primary_key&#187;</text><ellipse cx="286.99" cy="553.1698" fill="#000000" rx="3" ry="3" style="stroke:#000000;stroke-width:1.0;"/><text fill="#000000" font-family="sans-serif" font-size="14" lengthAdjust="spacing" textLength="75" x="295.99" y="557.1018">pt &#171;POINT&#187;</text><line style="stroke:#181818;stroke-width:0.5;" x1="276.99" x2="466.99" y1="565.2038" y2="565.2038"/></g><!--class Neighborhood--><g id="elem_Neighborhood"><rect codeLine="71" fill="#F1F1F1" height="124.2717" id="Neighborhood" rx="2.5" ry="2.5" style="stroke:#181818;stroke-width:0.5;" width="192" x="275.99" y="228.5"/><ellipse cx="318.89" cy="244.5" fill="#ADD1B2" rx="11" ry="11" style="stroke:#181818;stroke-width:1.0;"/><path d="M322.9994,250.5 L315.2806,250.5 L315.2806,238.1094 L322.9994,238.1094 L322.9994,240.2656 L317.7338,240.2656 L317.7338,242.9375 L322.4994,242.9375 L322.4994,245.0938 L317.7338,245.0938 L317.7338,248.3438 L322.9994,248.3438 L322.9994,250.5 Z " fill="#000000"/><text fill="#000000" font-family="sans-serif" font-size="14" lengthAdjust="spacing" textLength="98" x="339.09" y="249.932">Neighborhood</text><line style="stroke:#181818;stroke-width:0.5;" x1="276.99" x2="466.99" y1="260.5" y2="260.5"/><ellipse cx="286.99" cy="275.534" fill="#000000" rx="3" ry="3" style="stroke:#000000;stroke-width:1.0;"/><text fill="#000000" font-family="sans-serif" font-size="14" lengthAdjust="spacing" textLength="166" x="295.99" y="279.4659">gwb_code &#171;primary_key&#187;</text><ellipse cx="286.99" cy="294.6019" fill="#000000" rx="3" ry="3" style="stroke:#000000;stroke-width:1.0;"/><text fill="#000000" font-family="sans-serif" font-size="14" lengthAdjust="spacing" textLength="98" x="295.99" y="298.5339">regio &#171;names&#187;</text><ellipse cx="286.99" cy="313.6698" fill="#000000" rx="3" ry="3" style="stroke:#000000;stroke-width:1.0;"/><text fill="#000000" font-family="sans-serif" font-size="14" lengthAdjust="spacing" textLength="109" x="295.99" y="317.6018">geom &#171;borders&#187;</text><text fill="#000000" font-family="sans-serif" font-size="14" lengthAdjust="spacing" textLength="122" x="295.99" y="336.6697">demographic_info</text><line style="stroke:#181818;stroke-width:0.5;" x1="276.99" x2="466.99" y1="344.7717" y2="344.7717"/></g><!--class Features--><g id="elem_Features"><rect codeLine="78" fill="#F1F1F1" height="143.3396" id="Features" rx="2.5" ry="2.5" style="stroke:#181818;stroke-width:0.5;" width="150" x="1258.99" y="449"/><ellipse cx="1300.99" cy="465" fill="#ADD1B2" rx="11" ry="11" style="stroke:#181818;stroke-width:1.0;"/><path d="M1305.0994,471 L1297.3806,471 L1297.3806,458.6094 L1305.0994,458.6094 L1305.0994,460.7656 L1299.8338,460.7656 L1299.8338,463.4375 L1304.5994,463.4375 L1304.5994,465.5938 L1299.8338,465.5938 L1299.8338,468.8438 L1305.0994,468.8438 L1305.0994,471 Z " fill="#000000"/><text fill="#000000" font-family="sans-serif" font-size="14" lengthAdjust="spacing" textLength="58" x="1320.99" y="470.432">Features</text><line style="stroke:#181818;stroke-width:0.5;" x1="1259.99" x2="1407.99" y1="481" y2="481"/><ellipse cx="1269.99" cy="496.034" fill="#000000" rx="3" ry="3" style="stroke:#000000;stroke-width:1.0;"/><text fill="#000000" font-family="sans-serif" font-size="14" lengthAdjust="spacing" textLength="17" x="1278.99" y="499.9659">id,</text><ellipse cx="1269.99" cy="515.1019" fill="#000000" rx="3" ry="3" style="stroke:#000000;stroke-width:1.0;"/><text fill="#000000" font-family="sans-serif" font-size="14" lengthAdjust="spacing" textLength="59" x="1278.99" y="519.0339">element,</text><ellipse cx="1269.99" cy="534.1698" fill="#000000" rx="3" ry="3" style="stroke:#000000;stroke-width:1.0;"/><text fill="#000000" font-family="sans-serif" font-size="14" lengthAdjust="spacing" textLength="23" x="1278.99" y="538.1018">loc,</text><text fill="#000000" font-family="sans-serif" font-size="14" lengthAdjust="spacing" textLength="124" x="1278.99" y="557.1697">public_transit_info</text><text fill="#000000" font-family="sans-serif" font-size="14" lengthAdjust="spacing" textLength="86" x="1278.99" y="576.2376">amenity_info</text><line style="stroke:#181818;stroke-width:0.5;" x1="1259.99" x2="1407.99" y1="584.3396" y2="584.3396"/></g><!--class GTFS_stop--><g id="elem_GTFS_stop"><rect codeLine="86" fill="#F1F1F1" height="105.2038" id="GTFS_stop" rx="2.5" ry="2.5" style="stroke:#181818;stroke-width:0.5;" width="173" x="919.49" y="675"/><ellipse cx="967.74" cy="691" fill="#ADD1B2" rx="11" ry="11" style="stroke:#181818;stroke-width:1.0;"/><path d="M971.8494,697 L964.1306,697 L964.1306,684.6094 L971.8494,684.6094 L971.8494,686.7656 L966.5838,686.7656 L966.5838,689.4375 L971.3494,689.4375 L971.3494,691.5938 L966.5838,691.5938 L966.5838,694.8438 L971.8494,694.8438 L971.8494,697 Z " fill="#000000"/><text fill="#000000" font-family="sans-serif" font-size="14" lengthAdjust="spacing" textLength="68" x="988.24" y="696.432">GTFS_stop</text><line style="stroke:#181818;stroke-width:0.5;" x1="920.49" x2="1091.49" y1="707" y2="707"/><ellipse cx="930.49" cy="722.034" fill="#000000" rx="3" ry="3" style="stroke:#000000;stroke-width:1.0;"/><text fill="#000000" font-family="sans-serif" font-size="14" lengthAdjust="spacing" textLength="147" x="939.49" y="725.9659">stop_id &#171;primary_key&#187;</text><ellipse cx="930.49" cy="741.1019" fill="#000000" rx="3" ry="3" style="stroke:#000000;stroke-width:1.0;"/><text fill="#000000" font-family="sans-serif" font-size="14" lengthAdjust="spacing" textLength="80" x="939.49" y="745.0339">loc &#171;POINT&#187;</text><text fill="#000000" font-family="sans-serif" font-size="14" lengthAdjust="spacing" textLength="73" x="939.49" y="764.1018">stop_name</text><line style="stroke:#181818;stroke-width:0.5;" x1="920.49" x2="1091.49" y1="772.2038" y2="772.2038"/></g><!--class GTFS_route--><g id="elem_GTFS_route"><rect codeLine="92" fill="#F1F1F1" height="86.1358" id="GTFS_route" rx="2.5" ry="2.5" style="stroke:#181818;stroke-width:0.5;" width="292" x="1451.99" y="477.5"/><ellipse cx="1556.24" cy="493.5" fill="#ADD1B2" rx="11" ry="11" style="stroke:#181818;stroke-width:1.0;"/><path d="M1560.3494,499.5 L1552.6306,499.5 L1552.6306,487.1094 L1560.3494,487.1094 L1560.3494,489.2656 L1555.0838,489.2656 L1555.0838,491.9375 L1559.8494,491.9375 L1559.8494,494.0938 L1555.0838,494.0938 L1555.0838,497.3438 L1560.3494,497.3438 L1560.3494,499.5 Z " fill="#000000"/><text fill="#000000" font-family="sans-serif" font-size="14" lengthAdjust="spacing" textLength="75" x="1576.74" y="498.932">GTFS_route</text><line style="stroke:#181818;stroke-width:0.5;" x1="1452.99" x2="1742.99" y1="509.5" y2="509.5"/><ellipse cx="1462.99" cy="524.534" fill="#000000" rx="3" ry="3" style="stroke:#000000;stroke-width:1.0;"/><text fill="#000000" font-family="sans-serif" font-size="14" lengthAdjust="spacing" textLength="154" x="1471.99" y="528.4659">route_id &#171;primary_key&#187;</text><text fill="#000000" font-family="sans-serif" font-size="14" lengthAdjust="spacing" textLength="266" x="1471.99" y="547.5339">route_type &#171;bus | tram | metro | train&#187;</text><line style="stroke:#181818;stroke-width:0.5;" x1="1452.99" x2="1742.99" y1="555.6358" y2="555.6358"/></g><!--class GTFS_trip--><g id="elem_GTFS_trip"><rect codeLine="97" fill="#F1F1F1" height="105.2038" id="GTFS_trip" rx="2.5" ry="2.5" style="stroke:#181818;stroke-width:0.5;" width="168" x="1376.99" y="675"/><ellipse cx="1425.24" cy="691" fill="#ADD1B2" rx="11" ry="11" style="stroke:#181818;stroke-width:1.0;"/><path d="M1429.3494,697 L1421.6306,697 L1421.6306,684.6094 L1429.3494,684.6094 L1429.3494,686.7656 L1424.0838,686.7656 L1424.0838,689.4375 L1428.8494,689.4375 L1428.8494,691.5938 L1424.0838,691.5938 L1424.0838,694.8438 L1429.3494,694.8438 L1429.3494,697 Z " fill="#000000"/><text fill="#000000" font-family="sans-serif" font-size="14" lengthAdjust="spacing" textLength="63" x="1445.74" y="696.432">GTFS_trip</text><line style="stroke:#181818;stroke-width:0.5;" x1="1377.99" x2="1543.99" y1="707" y2="707"/><ellipse cx="1387.99" cy="722.034" fill="#000000" rx="3" ry="3" style="stroke:#000000;stroke-width:1.0;"/><text fill="#000000" font-family="sans-serif" font-size="14" lengthAdjust="spacing" textLength="142" x="1396.99" y="725.9659">trip_id &#171;primary_key&#187;</text><text fill="#000000" font-family="sans-serif" font-size="14" lengthAdjust="spacing" textLength="55" x="1396.99" y="745.0339">route_id</text><text fill="#000000" font-family="sans-serif" font-size="14" lengthAdjust="spacing" textLength="66" x="1396.99" y="764.1018">service_id</text><line style="stroke:#181818;stroke-width:0.5;" x1="1377.99" x2="1543.99" y1="772.2038" y2="772.2038"/></g><!--class GTFS_stop_time--><g id="elem_GTFS_stop_time"><rect codeLine="103" fill="#F1F1F1" height="143.3396" id="GTFS_stop_time" rx="2.5" ry="2.5" style="stroke:#181818;stroke-width:0.5;" width="136" x="1211.99" y="841"/><ellipse cx="1226.99" cy="857" fill="#ADD1B2" rx="11" ry="11" style="stroke:#181818;stroke-width:1.0;"/><path d="M1231.0994,863 L1223.3806,863 L1223.3806,850.6094 L1231.0994,850.6094 L1231.0994,852.7656 L1225.8338,852.7656 L1225.8338,855.4375 L1230.5994,855.4375 L1230.5994,857.5938 L1225.8338,857.5938 L1225.8338,860.8438 L1231.0994,860.8438 L1231.0994,863 Z " fill="#000000"/><text fill="#000000" font-family="sans-serif" font-size="14" lengthAdjust="spacing" textLength="104" x="1240.99" y="862.432">GTFS_stop_time</text><line style="stroke:#181818;stroke-width:0.5;" x1="1212.99" x2="1346.99" y1="873" y2="873"/><ellipse cx="1222.99" cy="888.034" fill="#000000" rx="3" ry="3" style="stroke:#000000;stroke-width:1.0;"/><text fill="#000000" font-family="sans-serif" font-size="14" lengthAdjust="spacing" textLength="43" x="1231.99" y="891.9659">trip_id</text><ellipse cx="1222.99" cy="907.1019" fill="#000000" rx="3" ry="3" style="stroke:#000000;stroke-width:1.0;"/><text fill="#000000" font-family="sans-serif" font-size="14" lengthAdjust="spacing" textLength="48" x="1231.99" y="911.0339">stop_id</text><text fill="#000000" font-family="sans-serif" font-size="14" lengthAdjust="spacing" textLength="79" x="1231.99" y="930.1018">arrival_time</text><text fill="#000000" font-family="sans-serif" font-size="14" lengthAdjust="spacing" textLength="104" x="1231.99" y="949.1697">departure_time</text><text fill="#000000" font-family="sans-serif" font-size="14" lengthAdjust="spacing" textLength="100" x="1231.99" y="968.2376">stop_sequence</text><line style="stroke:#181818;stroke-width:0.5;" x1="1212.99" x2="1346.99" y1="976.3396" y2="976.3396"/></g><!--class GTFS_frequency--><g id="elem_GTFS_frequency"><rect fill="#F1F1F1" height="48" id="GTFS_frequency" rx="2.5" ry="2.5" style="stroke:#181818;stroke-width:0.5;" width="139" x="1391.49" y="888.5"/><ellipse cx="1406.49" cy="904.5" fill="#ADD1B2" rx="11" ry="11" style="stroke:#181818;stroke-width:1.0;"/><path d="M1409.4588,910.1406 Q1408.8806,910.4375 1408.24,910.5781 Q1407.5994,910.7344 1406.8963,910.7344 Q1404.3963,910.7344 1403.0681,909.0938 Q1401.7556,907.4375 1401.7556,904.3125 Q1401.7556,901.1875 1403.0681,899.5313 Q1404.3963,897.875 1406.8963,897.875 Q1407.5994,897.875 1408.24,898.0313 Q1408.8963,898.1875 1409.4588,898.4844 L1409.4588,901.2031 Q1408.8338,900.625 1408.24,900.3594 Q1407.6463,900.0781 1407.0213,900.0781 Q1405.6775,900.0781 1404.99,901.1563 Q1404.3025,902.2188 1404.3025,904.3125 Q1404.3025,906.4063 1404.99,907.4844 Q1405.6775,908.5469 1407.0213,908.5469 Q1407.6463,908.5469 1408.24,908.2813 Q1408.8338,908 1409.4588,907.4219 L1409.4588,910.1406 Z " fill="#000000"/><text fill="#000000" font-family="sans-serif" font-size="14" lengthAdjust="spacing" textLength="107" x="1420.49" y="909.932">GTFS_frequency</text><line style="stroke:#181818;stroke-width:0.5;" x1="1392.49" x2="1529.49" y1="920.5" y2="920.5"/><line style="stroke:#181818;stroke-width:0.5;" x1="1392.49" x2="1529.49" y1="928.5" y2="928.5"/></g><!--link CBS to Neighborhood--><g id="link_CBS_Neighborhood"><path codeLine="116" d="M371.99,162.13 C371.99,185 371.99,193.97 371.99,216.17 " fill="none" id="CBS-Neighborhood" style="stroke:#181818;stroke-width:1.0;"/><line style="stroke:#181818;stroke-width:1.0;" x1="367.99" x2="375.99" y1="158.13" y2="158.13"/><line style="stroke:#181818;stroke-width:1.0;" x1="367.99" x2="375.99" y1="161.13" y2="161.13"/><line style="stroke:#181818;stroke-width:1.0;" x1="371.99" x2="371.99" y1="162.13" y2="154.13"/><line style="stroke:#181818;stroke-width:1.0;" x1="375.99" x2="367.99" y1="220.17" y2="220.17"/><line style="stroke:#181818;stroke-width:1.0;" x1="375.99" x2="367.99" y1="217.17" y2="217.17"/><line style="stroke:#181818;stroke-width:1.0;" x1="371.99" x2="371.99" y1="216.17" y2="224.17"/></g><!--link CBS to Neighborhood_pts--><g id="link_CBS_Neighborhood_pts"><path codeLine="117" d="M211.99,52.5 C6,52.5 51,513.5 256.99,513.5 " fill="none" id="CBS-Neighborhood_pts" style="stroke:#181818;stroke-width:1.0;"/><line style="stroke:#181818;stroke-width:1.0;" x1="215.99" x2="226.99" y1="52.5" y2="52.5"/><ellipse cx="215.99" cy="52.5" fill="none" rx="4" ry="4" style="stroke:#181818;stroke-width:1.0;"/><line style="stroke:#181818;stroke-width:1.0;" x1="222.99" x2="222.99" y1="48.5" y2="56.5"/><line style="stroke:#181818;stroke-width:1.0;" x1="266.99" x2="274.99" y1="513.5" y2="507.5"/><line style="stroke:#181818;stroke-width:1.0;" x1="266.99" x2="274.99" y1="513.5" y2="519.5"/><line style="stroke:#181818;stroke-width:1.0;" x1="266.99" x2="274.99" y1="513.5" y2="513.5"/><ellipse cx="260.99" cy="513.5" fill="none" rx="4" ry="4" style="stroke:#181818;stroke-width:1.0;"/></g><!--link Neighborhood to Neighborhood_pts--><g id="link_Neighborhood_Neighborhood_pts"><path codeLine="118" d="M483.99,273.5 C538.44,273.5 468.21,341.55 467.99,396 C467.96,404.44 467.95,406.56 467.99,415 C468.21,458.78 530.77,513.5 486.99,513.5 " fill="none" id="Neighborhood-Neighborhood_pts" style="stroke:#181818;stroke-width:1.0;"/><line style="stroke:#181818;stroke-width:1.0;" x1="479.99" x2="468.99" y1="273.5" y2="273.5"/><ellipse cx="479.99" cy="273.5" fill="none" rx="4" ry="4" style="stroke:#181818;stroke-width:1.0;"/><line style="stroke:#181818;stroke-width:1.0;" x1="472.99" x2="472.99" y1="277.5" y2="269.5"/><line style="stroke:#181818;stroke-width:1.0;" x1="476.99" x2="468.99" y1="513.5" y2="519.5"/><line style="stroke:#181818;stroke-width:1.0;" x1="476.99" x2="468.99" y1="513.5" y2="507.5"/><line style="stroke:#181818;stroke-width:1.0;" x1="476.99" x2="468.99" y1="513.5" y2="513.5"/><ellipse cx="482.99" cy="513.5" fill="none" rx="4" ry="4" style="stroke:#181818;stroke-width:1.0;"/></g><!--link CBS to Graph_nodes--><g id="link_CBS_Graph_nodes"><path codeLine="120" d="M524.99,110.5 C647.47,110.5 690.13,123.9 771.99,215 C833.85,283.84 779.1,337.7 829.99,415 C836.9,425.49 832.7007,422.5078 841.6807,431.8278 " fill="none" id="CBS-Graph_nodes" style="stroke:#181818;stroke-width:1.0;"/><line style="stroke:#181818;stroke-width:1.0;" x1="520.99" x2="520.99" y1="114.5" y2="106.5"/><line style="stroke:#181818;stroke-width:1.0;" x1="523.99" x2="523.99" y1="114.5" y2="106.5"/><line style="stroke:#181818;stroke-width:1.0;" x1="524.99" x2="516.99" y1="110.5" y2="110.5"/><line style="stroke:#181818;stroke-width:1.0;" x1="848.6192" x2="858.4907" y1="439.029" y2="440.6269"/><line style="stroke:#181818;stroke-width:1.0;" x1="848.6192" x2="849.8493" y1="439.029" y2="448.9531"/><line style="stroke:#181818;stroke-width:1.0;" x1="848.6192" x2="854.17" y1="439.029" y2="444.79"/><ellipse cx="844.4561" cy="434.7083" fill="none" rx="4" ry="4" style="stroke:#181818;stroke-width:1.0;"/></g><!--link Neighborhood to Graph_nodes--><g id="link_Neighborhood_Graph_nodes"><path codeLine="121" d="M476.99,312.5 C503.24,312.5 474.38,348.56 493.99,366 C589.55,450.98 715.7047,486.1519 817.6847,503.1419 " fill="none" id="Neighborhood-Graph_nodes" style="stroke:#181818;stroke-width:1.0;"/><line style="stroke:#181818;stroke-width:1.0;" x1="472.99" x2="472.99" y1="316.5" y2="308.5"/><line style="stroke:#181818;stroke-width:1.0;" x1="475.99" x2="475.99" y1="316.5" y2="308.5"/><line style="stroke:#181818;stroke-width:1.0;" x1="476.99" x2="468.99" y1="312.5" y2="312.5"/><line style="stroke:#181818;stroke-width:1.0;" x1="827.5488" x2="836.426" y1="504.7853" y2="500.1816"/><line style="stroke:#181818;stroke-width:1.0;" x1="827.5488" x2="834.454" y1="504.7853" y2="512.0184"/><line style="stroke:#181818;stroke-width:1.0;" x1="827.5488" x2="835.44" y1="504.7853" y2="506.1"/><ellipse cx="821.6303" cy="503.7993" fill="none" rx="4" ry="4" style="stroke:#181818;stroke-width:1.0;"/></g><!--link Graph_edges to Graph_nodes--><g id="link_Graph_edges_Graph_nodes"><path codeLine="123" d="M859.99,283.5 C836.38,283.5 811.38,494.5 834.99,494.5 " fill="none" id="Graph_edges-Graph_nodes" style="stroke:#181818;stroke-width:1.0;"/><line style="stroke:#181818;stroke-width:1.0;" x1="863.99" x2="863.99" y1="279.5" y2="287.5"/><line style="stroke:#181818;stroke-width:1.0;" x1="860.99" x2="860.99" y1="279.5" y2="287.5"/><line style="stroke:#181818;stroke-width:1.0;" x1="859.99" x2="867.99" y1="283.5" y2="283.5"/><line style="stroke:#181818;stroke-width:1.0;" x1="838.99" x2="838.99" y1="490.5" y2="498.5"/><line style="stroke:#181818;stroke-width:1.0;" x1="835.99" x2="835.99" y1="490.5" y2="498.5"/><line style="stroke:#181818;stroke-width:1.0;" x1="834.99" x2="842.99" y1="494.5" y2="494.5"/></g><!--link Graph_edges to Graph_nodes--><g id="link_Graph_edges_Graph_nodes"><path codeLine="124" d="M1055.99,303.5 C1105.57,303.5 1035.99,367.75 1050.99,415 C1055.84,430.27 1066.19,429.71 1070.99,445 C1077.58,465.99 1102,494.5 1079.99,494.5 " fill="none" id="Graph_edges-Graph_nodes-1" style="stroke:#181818;stroke-width:1.0;"/><line style="stroke:#181818;stroke-width:1.0;" x1="1051.99" x2="1051.99" y1="307.5" y2="299.5"/><line style="stroke:#181818;stroke-width:1.0;" x1="1054.99" x2="1054.99" y1="307.5" y2="299.5"/><line style="stroke:#181818;stroke-width:1.0;" x1="1055.99" x2="1047.99" y1="303.5" y2="303.5"/><line style="stroke:#181818;stroke-width:1.0;" x1="1075.99" x2="1075.99" y1="498.5" y2="490.5"/><line style="stroke:#181818;stroke-width:1.0;" x1="1078.99" x2="1078.99" y1="498.5" y2="490.5"/><line style="stroke:#181818;stroke-width:1.0;" x1="1079.99" x2="1071.99" y1="494.5" y2="494.5"/></g><!--link GTFS_route to GTFS_trip--><g id="link_GTFS_route_GTFS_trip"><path codeLine="127" d="M1565.1638,570.6307 C1543.6038,602.8807 1528.3217,625.7545 1505.4117,660.0345 " fill="none" id="GTFS_route-GTFS_trip" style="stroke:#181818;stroke-width:1.0;"/><line style="stroke:#181818;stroke-width:1.0;" x1="1564.0616" x2="1570.7123" y1="565.0823" y2="569.5284"/><line style="stroke:#181818;stroke-width:1.0;" x1="1562.3943" x2="1569.0449" y1="567.5763" y2="572.0224"/><line style="stroke:#181818;stroke-width:1.0;" x1="1565.1638" x2="1569.61" y1="570.6307" y2="563.98"/><line style="stroke:#181818;stroke-width:1.0;" x1="1499.8552" x2="1500.3985" y1="668.3487" y2="678.3339"/><line style="stroke:#181818;stroke-width:1.0;" x1="1499.8552" x2="1490.4215" y1="668.3487" y2="671.6661"/><line style="stroke:#181818;stroke-width:1.0;" x1="1499.8552" x2="1495.41" y1="668.3487" y2="675"/><ellipse cx="1503.1891" cy="663.3602" fill="none" rx="4" ry="4" style="stroke:#181818;stroke-width:1.0;"/></g><!--link GTFS_trip to GTFS_stop_time--><g id="link_GTFS_trip_GTFS_stop_time"><path codeLine="128" d="M1403.9841,786.1376 C1384.8541,805.4776 1381.1263,809.2409 1360.7363,829.8609 " fill="none" id="GTFS_trip-GTFS_stop_time" style="stroke:#181818;stroke-width:1.0;"/><line style="stroke:#181818;stroke-width:1.0;" x1="1403.9532" x2="1409.6409" y1="780.4809" y2="786.1068"/><line style="stroke:#181818;stroke-width:1.0;" x1="1401.8435" x2="1407.5312" y1="782.6137" y2="788.2396"/><line style="stroke:#181818;stroke-width:1.0;" x1="1403.9841" x2="1409.61" y1="786.1376" y2="780.45"/><line style="stroke:#181818;stroke-width:1.0;" x1="1353.705" x2="1352.3464" y1="836.9715" y2="846.8788"/><line style="stroke:#181818;stroke-width:1.0;" x1="1353.705" x2="1343.8136" y1="836.9715" y2="838.4412"/><line style="stroke:#181818;stroke-width:1.0;" x1="1353.705" x2="1348.08" y1="836.9715" y2="842.66"/><ellipse cx="1357.9238" cy="832.7051" fill="none" rx="4" ry="4" style="stroke:#181818;stroke-width:1.0;"/></g><!--link GTFS_stop to GTFS_stop_time--><g id="link_GTFS_stop_GTFS_stop_time"><path codeLine="129" d="M1090.0631,784.6525 C1130.4231,811.6025 1157.722,829.8321 1196.662,855.8421 " fill="none" id="GTFS_stop-GTFS_stop_time" style="stroke:#181818;stroke-width:1.0;"/><line style="stroke:#181818;stroke-width:1.0;" x1="1084.5153" x2="1088.9578" y1="785.7578" y2="779.1047"/><line style="stroke:#181818;stroke-width:1.0;" x1="1087.0102" x2="1091.4527" y1="787.4238" y2="780.7707"/><line style="stroke:#181818;stroke-width:1.0;" x1="1090.0631" x2="1083.41" y1="784.6525" y2="780.21"/><line style="stroke:#181818;stroke-width:1.0;" x1="1204.9775" x2="1214.9626" y1="861.3965" y2="860.8507"/><line style="stroke:#181818;stroke-width:1.0;" x1="1204.9775" x2="1208.2974" y1="861.3965" y2="870.8293"/><line style="stroke:#181818;stroke-width:1.0;" x1="1204.9775" x2="1211.63" y1="861.3965" y2="865.84"/><ellipse cx="1199.9882" cy="858.0639" fill="none" rx="4" ry="4" style="stroke:#181818;stroke-width:1.0;"/></g><!--link GTFS_trip to GTFS_frequency--><g id="link_GTFS_trip_GTFS_frequency"><path codeLine="131" d="M1460.99,788.45 C1460.99,823.96 1460.99,843.3 1460.99,870.28 " fill="none" id="GTFS_trip-GTFS_frequency" style="stroke:#181818;stroke-width:1.0;"/><line style="stroke:#181818;stroke-width:1.0;" x1="1456.99" x2="1464.99" y1="784.45" y2="784.45"/><line style="stroke:#181818;stroke-width:1.0;" x1="1456.99" x2="1464.99" y1="787.45" y2="787.45"/><line style="stroke:#181818;stroke-width:1.0;" x1="1460.99" x2="1460.99" y1="788.45" y2="780.45"/><line style="stroke:#181818;stroke-width:1.0;" x1="1460.99" x2="1466.99" y1="880.28" y2="888.28"/><line style="stroke:#181818;stroke-width:1.0;" x1="1460.99" x2="1454.99" y1="880.28" y2="888.28"/><line style="stroke:#181818;stroke-width:1.0;" x1="1460.99" x2="1460.99" y1="880.28" y2="888.28"/><ellipse cx="1460.99" cy="874.28" fill="none" rx="4" ry="4" style="stroke:#181818;stroke-width:1.0;"/></g><!--link Neighborhood_pts to GTFS_stop--><g id="link_Neighborhood_pts_GTFS_stop"><path codeLine="133" d="M493.4572,560.777 C617.1872,600.777 786.8832,655.6518 902.2632,692.9618 " fill="none" id="Neighborhood_pts-GTFS_stop" style="stroke:#181818;stroke-width:1.0;"/><line style="stroke:#181818;stroke-width:1.0;" x1="483.9421" x2="474.4843" y1="557.7009" y2="560.9491"/><line style="stroke:#181818;stroke-width:1.0;" x1="483.9421" x2="478.1757" y1="557.7009" y2="549.5309"/><line style="stroke:#181818;stroke-width:1.0;" x1="483.9421" x2="476.33" y1="557.7009" y2="555.24"/><ellipse cx="489.6512" cy="559.5465" fill="none" rx="4" ry="4" style="stroke:#181818;stroke-width:1.0;"/><line style="stroke:#181818;stroke-width:1.0;" x1="911.7781" x2="921.2361" y1="696.0386" y2="692.7911"/><line style="stroke:#181818;stroke-width:1.0;" x1="911.7781" x2="917.5439" y1="696.0386" y2="704.2089"/><line style="stroke:#181818;stroke-width:1.0;" x1="911.7781" x2="919.39" y1="696.0386" y2="698.5"/><ellipse cx="906.0691" cy="694.1925" fill="none" rx="4" ry="4" style="stroke:#181818;stroke-width:1.0;"/><text fill="#000000" font-family="sans-serif" font-size="13" lengthAdjust="spacing" textLength="45" x="745.99" y="640.897">nearest</text></g><!--link Bus_stations to Features--><g id="link_Bus_stations_Features"><path codeLine="135" d="M1300.99,283.5 C1396.05,283.5 1154.93,494.5 1249.99,494.5 " fill="none" id="Bus_stations-Features" style="stroke:#181818;stroke-width:1.0;"/><line style="stroke:#181818;stroke-width:1.0;" x1="1296.99" x2="1296.99" y1="287.5" y2="279.5"/><line style="stroke:#181818;stroke-width:1.0;" x1="1299.99" x2="1299.99" y1="287.5" y2="279.5"/><line style="stroke:#181818;stroke-width:1.0;" x1="1300.99" x2="1292.99" y1="283.5" y2="283.5"/><line style="stroke:#181818;stroke-width:1.0;" x1="1253.99" x2="1253.99" y1="490.5" y2="498.5"/><line style="stroke:#181818;stroke-width:1.0;" x1="1250.99" x2="1250.99" y1="490.5" y2="498.5"/><line style="stroke:#181818;stroke-width:1.0;" x1="1249.99" x2="1257.99" y1="494.5" y2="494.5"/></g><!--link Bus_stations to Features--><g id="link_Bus_stations_Features"><path codeLine="137" d="M1089.99,322.5 C1031.15,322.5 1191.15,533.5 1249.99,533.5 " fill="none" id="Bus_stations-Features-1" style="stroke:#181818;stroke-width:1.0;"/><line style="stroke:#181818;stroke-width:1.0;" x1="1093.99" x2="1093.99" y1="318.5" y2="326.5"/><line style="stroke:#181818;stroke-width:1.0;" x1="1090.99" x2="1090.99" y1="318.5" y2="326.5"/><line style="stroke:#181818;stroke-width:1.0;" x1="1089.99" x2="1097.99" y1="322.5" y2="322.5"/><line style="stroke:#181818;stroke-width:1.0;" x1="1253.99" x2="1253.99" y1="529.5" y2="537.5"/><line style="stroke:#181818;stroke-width:1.0;" x1="1250.99" x2="1250.99" y1="529.5" y2="537.5"/><line style="stroke:#181818;stroke-width:1.0;" x1="1249.99" x2="1257.99" y1="533.5" y2="533.5"/></g><!--link Bus_stations to Graph_nodes--><g id="link_Bus_stations_Graph_nodes"><path codeLine="136" d="M1089.99,303.5 C1047.16,303.5 1122.83,494.5 1079.99,494.5 " fill="none" id="Bus_stations-Graph_nodes" style="stroke:#181818;stroke-width:1.0;"/><line style="stroke:#181818;stroke-width:1.0;" x1="1093.99" x2="1093.99" y1="299.5" y2="307.5"/><line style="stroke:#181818;stroke-width:1.0;" x1="1090.99" x2="1090.99" y1="299.5" y2="307.5"/><line style="stroke:#181818;stroke-width:1.0;" x1="1089.99" x2="1097.99" y1="303.5" y2="303.5"/><line style="stroke:#181818;stroke-width:1.0;" x1="1075.99" x2="1075.99" y1="498.5" y2="490.5"/><line style="stroke:#181818;stroke-width:1.0;" x1="1078.99" x2="1078.99" y1="498.5" y2="490.5"/><line style="stroke:#181818;stroke-width:1.0;" x1="1079.99" x2="1071.99" y1="494.5" y2="494.5"/></g><!--link Bus_stations_to_move to Features--><g id="link_Bus_stations_to_move_Features"><path codeLine="139" d="M1528.99,264.5 C1574.11,264.5 1538.22,324.73 1519.99,366 C1499.16,413.18 1465.99,403.78 1434.99,445 C1420.18,464.7 1442.64,494.5 1417.99,494.5 " fill="none" id="Bus_stations_to_move-Features" style="stroke:#181818;stroke-width:1.0;"/><line style="stroke:#181818;stroke-width:1.0;" x1="1524.99" x2="1524.99" y1="268.5" y2="260.5"/><line style="stroke:#181818;stroke-width:1.0;" x1="1527.99" x2="1527.99" y1="268.5" y2="260.5"/><line style="stroke:#181818;stroke-width:1.0;" x1="1528.99" x2="1520.99" y1="264.5" y2="264.5"/><line style="stroke:#181818;stroke-width:1.0;" x1="1413.99" x2="1413.99" y1="498.5" y2="490.5"/><line style="stroke:#181818;stroke-width:1.0;" x1="1416.99" x2="1416.99" y1="498.5" y2="490.5"/><line style="stroke:#181818;stroke-width:1.0;" x1="1417.99" x2="1409.99" y1="494.5" y2="494.5"/></g><!--link Bus_stations_to_move to Features--><g id="link_Bus_stations_to_move_Features"><path codeLine="142" d="M1333.99,322.5 C1314.65,322.5 1335.24,348.28 1342.99,366 C1350.68,383.57 1361.48,381.47 1373.99,396 C1391.46,416.28 1400.68,419.56 1408.99,445 C1421.21,482.39 1457.33,533.5 1417.99,533.5 " fill="none" id="Bus_stations_to_move-Features-1" style="stroke:#181818;stroke-width:1.0;"/><line style="stroke:#181818;stroke-width:1.0;" x1="1337.99" x2="1337.99" y1="318.5" y2="326.5"/><line style="stroke:#181818;stroke-width:1.0;" x1="1334.99" x2="1334.99" y1="318.5" y2="326.5"/><line style="stroke:#181818;stroke-width:1.0;" x1="1333.99" x2="1341.99" y1="322.5" y2="322.5"/><line style="stroke:#181818;stroke-width:1.0;" x1="1413.99" x2="1413.99" y1="537.5" y2="529.5"/><line style="stroke:#181818;stroke-width:1.0;" x1="1416.99" x2="1416.99" y1="537.5" y2="529.5"/><line style="stroke:#181818;stroke-width:1.0;" x1="1417.99" x2="1409.99" y1="533.5" y2="533.5"/></g><!--link Bus_stations_to_move to Features--><g id="link_Bus_stations_to_move_Features"><path codeLine="143" d="M1333.99,341.5 C1323.09,341.5 1339.53,355.67 1342.99,366 C1351.42,391.13 1359.67,394.93 1376.99,415 C1389.73,429.76 1401.14,427.16 1408.99,445 C1424.83,481.01 1457.33,533.5 1417.99,533.5 " fill="none" id="Bus_stations_to_move-Features-2" style="stroke:#181818;stroke-width:1.0;"/><line style="stroke:#181818;stroke-width:1.0;" x1="1337.99" x2="1337.99" y1="337.5" y2="345.5"/><line style="stroke:#181818;stroke-width:1.0;" x1="1334.99" x2="1334.99" y1="337.5" y2="345.5"/><line style="stroke:#181818;stroke-width:1.0;" x1="1333.99" x2="1341.99" y1="341.5" y2="341.5"/><line style="stroke:#181818;stroke-width:1.0;" x1="1413.99" x2="1413.99" y1="537.5" y2="529.5"/><line style="stroke:#181818;stroke-width:1.0;" x1="1416.99" x2="1416.99" y1="537.5" y2="529.5"/><line style="stroke:#181818;stroke-width:1.0;" x1="1417.99" x2="1409.99" y1="533.5" y2="533.5"/></g><!--link Bus_stations_to_move to Graph_nodes--><g id="link_Bus_stations_to_move_Graph_nodes"><path codeLine="140" d="M1333.99,283.5 C1295.68,283.5 1339.04,334.67 1316.99,366 C1281.61,416.28 1141.47,494.5 1079.99,494.5 " fill="none" id="Bus_stations_to_move-Graph_nodes" style="stroke:#181818;stroke-width:1.0;"/><line style="stroke:#181818;stroke-width:1.0;" x1="1337.99" x2="1337.99" y1="279.5" y2="287.5"/><line style="stroke:#181818;stroke-width:1.0;" x1="1334.99" x2="1334.99" y1="279.5" y2="287.5"/><line style="stroke:#181818;stroke-width:1.0;" x1="1333.99" x2="1341.99" y1="283.5" y2="283.5"/><line style="stroke:#181818;stroke-width:1.0;" x1="1075.99" x2="1075.99" y1="498.5" y2="490.5"/><line style="stroke:#181818;stroke-width:1.0;" x1="1078.99" x2="1078.99" y1="498.5" y2="490.5"/><line style="stroke:#181818;stroke-width:1.0;" x1="1079.99" x2="1071.99" y1="494.5" y2="494.5"/></g><!--link Bus_stations_to_move to Graph_nodes--><g id="link_Bus_stations_to_move_Graph_nodes"><path codeLine="141" d="M1333.99,303.5 C1304.08,303.5 1337.25,343.98 1316.99,366 C1296.81,387.94 1283.49,382.33 1256.99,396 C1174.22,438.72 1173.14,494.5 1079.99,494.5 " fill="none" id="Bus_stations_to_move-Graph_nodes-1" style="stroke:#181818;stroke-width:1.0;"/><line style="stroke:#181818;stroke-width:1.0;" x1="1337.99" x2="1337.99" y1="299.5" y2="307.5"/><line style="stroke:#181818;stroke-width:1.0;" x1="1334.99" x2="1334.99" y1="299.5" y2="307.5"/><line style="stroke:#181818;stroke-width:1.0;" x1="1333.99" x2="1341.99" y1="303.5" y2="303.5"/><line style="stroke:#181818;stroke-width:1.0;" x1="1075.99" x2="1075.99" y1="498.5" y2="490.5"/><line style="stroke:#181818;stroke-width:1.0;" x1="1078.99" x2="1078.99" y1="498.5" y2="490.5"/><line style="stroke:#181818;stroke-width:1.0;" x1="1079.99" x2="1071.99" y1="494.5" y2="494.5"/></g><!--link Graph_nodes_accessible to Graph_nodes--><g id="link_Graph_nodes_accessible_Graph_nodes"><path codeLine="145" d="M755.99,264.5 C801.11,264.5 757.57,322.15 746.99,366 C741.65,388.14 719.74,395.8 731.99,415 C755.45,451.76 788.1003,472.8743 828.0103,488.4943 " fill="none" id="Graph_nodes_accessible-Graph_nodes" style="stroke:#181818;stroke-width:1.0;"/><line style="stroke:#181818;stroke-width:1.0;" x1="751.99" x2="751.99" y1="268.5" y2="260.5"/><line style="stroke:#181818;stroke-width:1.0;" x1="754.99" x2="754.99" y1="268.5" y2="260.5"/><line style="stroke:#181818;stroke-width:1.0;" x1="755.99" x2="747.99" y1="264.5" y2="264.5"/><line style="stroke:#181818;stroke-width:1.0;" x1="833.193" x2="830.2773" y1="486.2273" y2="493.677"/><line style="stroke:#181818;stroke-width:1.0;" x1="830.3993" x2="827.4836" y1="485.1339" y2="492.5836"/><line style="stroke:#181818;stroke-width:1.0;" x1="828.0103" x2="835.46" y1="488.4943" y2="491.41"/><text fill="#000000" font-family="sans-serif" font-size="13" lengthAdjust="spacing" textLength="48" x="732.99" y="410.897">node_id</text></g><!--SRC=[nLPDZzis4BthLypDIH4lq02z26c09ka61PfiW5sWHu6MnZAp5AcIrBfAdF_U6OhwMikEanpYYqNoyV7DQFX6gzKblwJxWpUubLhg4eHIa2lX73euWdsLBLd1ZGPYyb8e-KbuQNI2salVmkjNj_0v0VhzKkutMMuAX1SlQYihOTli7jkNBxjLYwKqjAH5XMwSp1tD_Irq0GTuYnKIBTBZF_BZFVszQXhhUt29fYBmnjW2RKzHO6LAA-gTp3EfjoRvmdAlZOL2UB4MMgZMIGT6WzyXQD97Woq8KCAM23Utx_H_41ZwaDxo8EkGCJGUPB9OZinvY-Wfz4RxRaQPdA0VRlvwVnT16cMv8-KxOm8BsgsnbT0vze1mGWnW9WIBSXJ2WvD2cEFNyV5v58EwzBlmtEqUiXJuOqhyJdWG5a7aEJedDmfXquQSrKW0RwNG58RV6tk_aAbiik_d96r5rU8ovqDvEdYoHU4RY-ufAAdliG1lOgnxwNSGbu6EdHNqZ2H64h5d4tzoSJWWQBoZXEP2vOqIdZIHlaPvBaZEj3VhoZmWQrZt6fPqPTva0NYahniRLOIt4jNXVZBYDP8qBl5WaFORr4PgxqXOJThuRBQFsQkuWZyVqBOT4kXk2N24eXUV6zLKTD4CiP7bc3taZVEc8i_Wkj1DjK7BmSP3w8tEcVjWtqycizgxoopcr1ke_QImGgYl5GfDwQSu72MK9R6HYQqdHHJukhOcbBCkhnXkj1TIiukebXJJXIXYiB6QdAaGdjJ2iaMgzYb40iAn3rq52wMzP7Y_huAhaVl21rDp7R220hMZo6doZmervs2S2JkPJ3FxiUKj9Eq7FFbYcut7NiTxrXyfYsVHgnJvkVRFXclGFTNDHX6BjuBZwzXuNdHn7vdWtVKj5RwfUtv-FdVP7fb8W7E0ZpcjQVnmWyBW56ktwDkQqxXf73KcKb_HNuNUccueTLTSqoF8D0VP_7p-W7Xx7Te7cOVXGXOoBojyn3dBIvTBQ-M3K04Stn_N9dl4C1Nm3lzja0oLZxhqS-3nnuL55Uro0VRrZmk-U8V3Udqup2gOvzDqgD-3MQ_DPpXoXX6IJ9U-RMSyYmkVbH1wqjdIz9FHH-ndiScaSwTfQCjzY3Dmx1l7yETduSG_5d0leg-tPAoywT9GEybuePRNJn1iRLSgRP8SkVCNCoU2b4oIFYQSJv9ftqhJIIUD4VRsaQOKsHpSjzLpkPZlw7ljCJbtkMIfXtwJfd5Jts8l5ZTkxVlnTsoDpNivlDEddToIB7_1dKrzh_1_]--></g></svg>