<?xml version="1.0" encoding="us-ascii" standalone="no"?><svg xmlns="http://www.w3.org/2000/svg" xmlns:xlink="http://www.w3.org/1999/xlink" contentStyleType="text/css" height="782px" preserveAspectRatio="none" style="width:855px;height:782px;background:#FFFFFF;" version="1.1" viewBox="0 0 855 782" width="855px" zoomAndPan="magnify"><defs/><g><!--class Main_class--><g id="elem_Main_class"><rect codeLine="6" fill="#F1F1F1" height="200.5433" id="Main_class" rx="2.5" ry="2.5" style="stroke:#181818;stroke-width:0.5;" width="566" x="77.67" y="138"/><ellipse cx="319.92" cy="154" fill="#ADD1B2" rx="11" ry="11" style="stroke:#181818;stroke-width:1.0;"/><path d="M322.8888,159.6406 Q322.3106,159.9375 321.67,160.0781 Q321.0294,160.2344 320.3263,160.2344 Q317.8263,160.2344 316.4981,158.5938 Q315.1856,156.9375 315.1856,153.8125 Q315.1856,150.6875 316.4981,149.0313 Q317.8263,147.375 320.3263,147.375 Q321.0294,147.375 321.67,147.5313 Q322.3263,147.6875 322.8888,147.9844 L322.8888,150.7031 Q322.2638,150.125 321.67,149.8594 Q321.0763,149.5781 320.4513,149.5781 Q319.1075,149.5781 318.42,150.6563 Q317.7325,151.7188 317.7325,153.8125 Q317.7325,155.9063 318.42,156.9844 Q319.1075,158.0469 320.4513,158.0469 Q321.0763,158.0469 321.67,157.7813 Q322.2638,157.5 322.8888,156.9219 L322.8888,159.6406 Z " fill="#000000"/><text fill="#000000" font-family="sans-serif" font-size="14" lengthAdjust="spacing" textLength="73" x="340.42" y="159.432">Main_class</text><line style="stroke:#181818;stroke-width:0.5;" x1="78.67" x2="642.67" y1="170" y2="170"/><text fill="#000000" font-family="sans-serif" font-size="14" lengthAdjust="spacing" textLength="97" x="83.67" y="188.9659">Database data</text><text fill="#000000" font-family="sans-serif" font-size="14" lengthAdjust="spacing" textLength="114" x="83.67" y="208.0339">Network network</text><line style="stroke:#181818;stroke-width:0.5;" x1="78.67" x2="642.67" y1="216.1358" y2="216.1358"/><text fill="#000000" font-family="sans-serif" font-size="14" lengthAdjust="spacing" textLength="184" x="83.67" y="235.1018">void __init(csv, geopackage)</text><text fill="#000000" font-family="sans-serif" font-size="14" lengthAdjust="spacing" textLength="94" x="83.67" y="254.1697">Lst get_cities()</text><text fill="#000000" font-family="sans-serif" font-size="14" lengthAdjust="spacing" textLength="140" x="83.67" y="273.2376">Bool choose_city(city)</text><text fill="#000000" font-family="sans-serif" font-size="14" lengthAdjust="spacing" textLength="4" x="83.67" y="292.3055">&#160;</text><text fill="#000000" font-family="sans-serif" font-size="14" lengthAdjust="spacing" textLength="423" x="83.67" y="311.3734">Dict Simulate_transit_dist_on_trans(fraction, dem_grps, vis_opt)</text><text fill="#000000" font-family="sans-serif" font-size="14" lengthAdjust="spacing" textLength="554" x="83.67" y="330.4414">Lst[Dict] Simulate_transit_dist_on_trans_range(range, dem_grps, vis_opt, prog_opt)</text></g><!--class Database--><g id="elem_Database"><rect codeLine="20" fill="#F1F1F1" height="143.3396" id="Database" rx="2.5" ry="2.5" style="stroke:#181818;stroke-width:0.5;" width="164" x="198.67" y="425"/><ellipse cx="244.92" cy="441" fill="#ADD1B2" rx="11" ry="11" style="stroke:#181818;stroke-width:1.0;"/><path d="M247.8888,446.6406 Q247.3106,446.9375 246.67,447.0781 Q246.0294,447.2344 245.3263,447.2344 Q242.8263,447.2344 241.4981,445.5938 Q240.1856,443.9375 240.1856,440.8125 Q240.1856,437.6875 241.4981,436.0313 Q242.8263,434.375 245.3263,434.375 Q246.0294,434.375 246.67,434.5313 Q247.3263,434.6875 247.8888,434.9844 L247.8888,437.7031 Q247.2638,437.125 246.67,436.8594 Q246.0763,436.5781 245.4513,436.5781 Q244.1075,436.5781 243.42,437.6563 Q242.7325,438.7188 242.7325,440.8125 Q242.7325,442.9063 243.42,443.9844 Q244.1075,445.0469 245.4513,445.0469 Q246.0763,445.0469 246.67,444.7813 Q247.2638,444.5 247.8888,443.9219 L247.8888,446.6406 Z " fill="#000000"/><text fill="#000000" font-family="sans-serif" font-size="14" lengthAdjust="spacing" textLength="63" x="265.42" y="446.432">Database</text><line style="stroke:#181818;stroke-width:0.5;" x1="199.67" x2="361.67" y1="457" y2="457"/><text fill="#000000" font-family="sans-serif" font-size="14" lengthAdjust="spacing" textLength="129" x="204.67" y="475.9659">Duckdb connection</text><text fill="#000000" font-family="sans-serif" font-size="14" lengthAdjust="spacing" textLength="114" x="204.67" y="495.0339">Network network</text><line style="stroke:#181818;stroke-width:0.5;" x1="199.67" x2="361.67" y1="503.1358" y2="503.1358"/><text fill="#000000" font-family="sans-serif" font-size="14" lengthAdjust="spacing" textLength="152" x="204.67" y="522.1018">__init(csv, geopackage)</text><text fill="#000000" font-family="sans-serif" font-size="14" lengthAdjust="spacing" textLength="94" x="204.67" y="541.1697">Lst get_cities()</text><text fill="#000000" font-family="sans-serif" font-size="14" lengthAdjust="spacing" textLength="135" x="204.67" y="560.2376">load_network(name)</text></g><!--class Network--><g id="elem_Network"><rect codeLine="32" fill="#F1F1F1" height="124.2717" id="Network" rx="2.5" ry="2.5" style="stroke:#181818;stroke-width:0.5;" width="195" x="263.17" y="651"/><ellipse cx="328.42" cy="667" fill="#ADD1B2" rx="11" ry="11" style="stroke:#181818;stroke-width:1.0;"/><path d="M331.3887,672.6406 Q330.8106,672.9375 330.17,673.0781 Q329.5294,673.2344 328.8262,673.2344 Q326.3262,673.2344 324.9981,671.5938 Q323.6856,669.9375 323.6856,666.8125 Q323.6856,663.6875 324.9981,662.0313 Q326.3262,660.375 328.8262,660.375 Q329.5294,660.375 330.17,660.5313 Q330.8262,660.6875 331.3887,660.9844 L331.3887,663.7031 Q330.7637,663.125 330.17,662.8594 Q329.5762,662.5781 328.9512,662.5781 Q327.6075,662.5781 326.92,663.6563 Q326.2325,664.7188 326.2325,666.8125 Q326.2325,668.9063 326.92,669.9844 Q327.6075,671.0469 328.9512,671.0469 Q329.5762,671.0469 330.17,670.7813 Q330.7637,670.5 331.3887,669.9219 L331.3887,672.6406 Z " fill="#000000"/><text fill="#000000" font-family="sans-serif" font-size="14" lengthAdjust="spacing" textLength="56" x="348.92" y="672.432">Network</text><line style="stroke:#181818;stroke-width:0.5;" x1="264.17" x2="457.17" y1="683" y2="683"/><text fill="#000000" font-family="sans-serif" font-size="14" lengthAdjust="spacing" textLength="93" x="269.17" y="701.9659">OSMnx graph</text><line style="stroke:#181818;stroke-width:0.5;" x1="264.17" x2="457.17" y1="710.0679" y2="710.0679"/><text fill="#000000" font-family="sans-serif" font-size="14" lengthAdjust="spacing" textLength="74" x="269.17" y="729.0339">void __init()</text><text fill="#000000" font-family="sans-serif" font-size="14" lengthAdjust="spacing" textLength="157" x="269.17" y="748.1018">Bool remove_edges(Lst)</text><text fill="#000000" font-family="sans-serif" font-size="14" lengthAdjust="spacing" textLength="183" x="269.17" y="767.1697">Float shortest_dist(from, to)</text></g><!--class Gui--><g id="elem_Gui"><rect codeLine="40" fill="#F1F1F1" height="48" id="Gui" rx="2.5" ry="2.5" style="stroke:#181818;stroke-width:0.5;" width="55" x="333.17" y="7"/><ellipse cx="348.17" cy="23" fill="#F1F1F1" rx="11" ry="11" style="stroke:#181818;stroke-width:1.0;"/><path d="M347.9669,18.6719 L347.9669,22.2969 L348.9669,22.2969 Q350.17,22.2969 350.6544,21.8906 Q351.1387,21.4844 351.1387,20.4844 Q351.1387,19.4844 350.6544,19.0781 Q350.17,18.6719 348.9669,18.6719 L347.9669,18.6719 Z M345.5137,16.6094 L348.8731,16.6094 Q351.4356,16.6094 352.5606,17.5313 Q353.6856,18.4375 353.6856,20.4844 Q353.6856,22.5313 352.5606,23.4531 Q351.4356,24.3594 348.8731,24.3594 L347.9669,24.3594 L347.9669,29 L345.5137,29 L345.5137,16.6094 Z " fill="#000000"/><text fill="#000000" font-family="sans-serif" font-size="14" lengthAdjust="spacing" textLength="23" x="362.17" y="28.432">Gui</text><line style="stroke:#181818;stroke-width:0.5;" x1="334.17" x2="387.17" y1="39" y2="39"/><line style="stroke:#181818;stroke-width:0.5;" x1="334.17" x2="387.17" y1="47" y2="47"/></g><!--link Main_class to Database--><g id="link_Main_class_Database"><path codeLine="45" d="M76.67,183 C6,183 45.99,278.83 77.67,342 C101.59,389.69 142.973,423.4399 185.443,449.0699 " fill="none" id="Main_class-to-Database" style="stroke:#181818;stroke-width:1.0;"/><polygon fill="#181818" points="190.58,452.17,184.9412,444.0951,186.2991,449.5866,180.8077,450.9445,190.58,452.17" style="stroke:#181818;stroke-width:1.0;"/><text fill="#000000" font-family="sans-serif" font-size="13" lengthAdjust="spacing" textLength="9" x="110.67" y="386.897">is</text></g><!--link Main_class to Network--><g id="link_Main_class_Network"><path codeLine="46" d="M644.67,202 C848.12,202 562.0832,511.3679 427.3132,646.7379 " fill="none" id="Main_class-to-Network" style="stroke:#181818;stroke-width:1.0;"/><polygon fill="#181818" points="423.08,650.99,432.2645,647.4341,426.6077,647.4466,426.5951,641.7898,423.08,650.99" style="stroke:#181818;stroke-width:1.0;"/><text fill="#000000" font-family="sans-serif" font-size="13" lengthAdjust="spacing" textLength="9" x="626.67" y="501.897">is</text></g><!--link Database to Network--><g id="link_Database_Network"><path codeLine="47" d="M363.67,489.5 C396.07,489.5 385.7667,579.132 374.0967,645.002 " fill="none" id="Database-to-Network" style="stroke:#181818;stroke-width:1.0;"/><polygon fill="#181818" points="373.05,650.91,378.5587,642.7458,373.9223,645.9867,370.6814,641.3502,373.05,650.91" style="stroke:#181818;stroke-width:1.0;"/><text fill="#000000" font-family="sans-serif" font-size="13" lengthAdjust="spacing" textLength="9" x="380.67" y="616.897">is</text></g><!--link Gui to Main_class--><g id="link_Gui_Main_class"><path codeLine="49" d="M360.67,55.12 C360.67,74.7 360.67,86.24 360.67,115.85 " fill="none" id="Gui-to-Main_class" style="stroke:#181818;stroke-width:1.0;stroke-dasharray:7.0,7.0;"/><polygon fill="none" points="360.67,133.85,366.67,115.85,354.67,115.85,360.67,133.85" style="stroke:#181818;stroke-width:1.0;"/><text fill="#000000" font-family="sans-serif" font-size="13" lengthAdjust="spacing" textLength="27" x="361.67" y="99.897">uses</text></g><!--SRC=[bLGzRzim4DtrAswB32ZgxY502oDTcdR8qA4e29ewIuGbda2Ud0Hj_tkFf6Gx7sXS3fH8FZxUUtVarTKbhSWVsE3EEkjQq7qFfjSXO81NiFVPu4vRbmcWD1rHG32MduGt43GahDmXZ1v7JmP3Y6T-W4QpLlZ8NXksv5P5PeXaAl_-Aa3QHd1RBPnnGvhvYln0VWykVzDSwWva6r1AL75fmg625cdKPgzRN2N0by0onqh2inZAFFc9IFIdkEF2KncxrObrOmt3lHscNZCgYTS5owgnWHMvF2vtiueA6XnKwyTGmS46HICVJ_uHYNw-mwIaQx5C_HjabTX8RQRzKuZttxqUH_Ip_JlooMjqR7rsB5fNmwqiB2C8x2V3avS30YBGnEXLWy6shXRAQ3WOajW21w1TOdnXPxMO3uvaPpqdxvYhENMJsJVRoEKmsVDc-jBaVsUj9zsecQ9qUX3iSqUY5zQ9j9WPgRW7orsICc-guQFKlNM26tGC3lHMhCYGA0fi4Al8OoEiKk5nuUZeB7ZHalL-kxzpZz1A0DshUZohDOy37L1XqueQ4PUNRaKHG-Z8CuPS5L9MD5J0D2VxysHJK3XgBnK4SJc5TNPfj6jW2kdE2NGuNKqcy5DM8Jnr8ON4P2GS6HKNN_ONJuV7Fdbt_d1S_dISmbwlexDmVNrpgg6rQ7q6MKekeXRZ4sZPyWz84RshwzytvrwjarF5Nm00]--></g></svg>