<?xml version="1.0" encoding="us-ascii" standalone="no"?><svg xmlns="http://www.w3.org/2000/svg" xmlns:xlink="http://www.w3.org/1999/xlink" contentStyleType="text/css" height="565px" preserveAspectRatio="none" style="width:162px;height:565px;background:#FFFFFF;" version="1.1" viewBox="0 0 162 565" width="162px" zoomAndPan="magnify"><defs/><g><!--class class1--><g id="elem_class1"><rect codeLine="2" fill="#F1F1F1" height="143.3396" id="class1" rx="2.5" ry="2.5" style="stroke:#181818;stroke-width:0.5;" width="112" x="7" y="115"/><ellipse cx="39.55" cy="131" fill="#ADD1B2" rx="11" ry="11" style="stroke:#181818;stroke-width:1.0;"/><path d="M42.5188,136.6406 Q41.9406,136.9375 41.3,137.0781 Q40.6594,137.2344 39.9563,137.2344 Q37.4563,137.2344 36.1281,135.5938 Q34.8156,133.9375 34.8156,130.8125 Q34.8156,127.6875 36.1281,126.0313 Q37.4563,124.375 39.9563,124.375 Q40.6594,124.375 41.3,124.5313 Q41.9563,124.6875 42.5188,124.9844 L42.5188,127.7031 Q41.8938,127.125 41.3,126.8594 Q40.7063,126.5781 40.0813,126.5781 Q38.7375,126.5781 38.05,127.6563 Q37.3625,128.7188 37.3625,130.8125 Q37.3625,132.9063 38.05,133.9844 Q38.7375,135.0469 40.0813,135.0469 Q40.7063,135.0469 41.3,134.7813 Q41.8938,134.5 42.5188,133.9219 L42.5188,136.6406 Z " fill="#000000"/><text fill="#000000" font-family="sans-serif" font-size="14" lengthAdjust="spacing" textLength="41" x="57.45" y="136.432">class1</text><line style="stroke:#181818;stroke-width:0.5;" x1="8" x2="118" y1="147" y2="147"/><text fill="#000000" font-family="sans-serif" font-size="14" lengthAdjust="spacing" textLength="60" x="13" y="165.9659">int item1</text><text fill="#000000" font-family="sans-serif" font-size="14" lengthAdjust="spacing" textLength="82" x="13" y="185.0339">string item2</text><text fill="#000000" font-family="sans-serif" font-size="14" lengthAdjust="spacing" textLength="72" x="13" y="204.1018">float item3</text><line style="stroke:#181818;stroke-width:0.5;" x1="8" x2="118" y1="212.2038" y2="212.2038"/><text fill="#000000" font-family="sans-serif" font-size="14" lengthAdjust="spacing" textLength="100" x="13" y="231.1697">void method1()</text><text fill="#000000" font-family="sans-serif" font-size="14" lengthAdjust="spacing" textLength="90" x="13" y="250.2376">int method2()</text></g><!--class class2--><g id="elem_class2"><rect codeLine="10" fill="#F1F1F1" height="86.1358" id="class2" rx="2.5" ry="2.5" style="stroke:#181818;stroke-width:0.5;" width="94" x="16" y="322"/><ellipse cx="40.45" cy="338" fill="#ADD1B2" rx="11" ry="11" style="stroke:#181818;stroke-width:1.0;"/><path d="M43.4188,343.6406 Q42.8406,343.9375 42.2,344.0781 Q41.5594,344.2344 40.8563,344.2344 Q38.3563,344.2344 37.0281,342.5938 Q35.7156,340.9375 35.7156,337.8125 Q35.7156,334.6875 37.0281,333.0313 Q38.3563,331.375 40.8563,331.375 Q41.5594,331.375 42.2,331.5313 Q42.8563,331.6875 43.4188,331.9844 L43.4188,334.7031 Q42.7938,334.125 42.2,333.8594 Q41.6063,333.5781 40.9813,333.5781 Q39.6375,333.5781 38.95,334.6563 Q38.2625,335.7188 38.2625,337.8125 Q38.2625,339.9063 38.95,340.9844 Q39.6375,342.0469 40.9813,342.0469 Q41.6063,342.0469 42.2,341.7813 Q42.7938,341.5 43.4188,340.9219 L43.4188,343.6406 Z " fill="#000000"/><text fill="#000000" font-family="sans-serif" font-size="14" lengthAdjust="spacing" textLength="41" x="56.55" y="343.432">class2</text><line style="stroke:#181818;stroke-width:0.5;" x1="17" x2="109" y1="354" y2="354"/><text fill="#000000" font-family="sans-serif" font-size="14" lengthAdjust="spacing" textLength="74" x="22" y="372.9659">class items</text><line style="stroke:#181818;stroke-width:0.5;" x1="17" x2="109" y1="381.0679" y2="381.0679"/><text fill="#000000" font-family="sans-serif" font-size="14" lengthAdjust="spacing" textLength="82" x="22" y="400.0339">int method()</text></g><!--class main--><g id="elem_main"><rect codeLine="15" fill="#F1F1F1" height="48" id="main" rx="2.5" ry="2.5" style="stroke:#181818;stroke-width:0.5;" width="66" x="30" y="7"/><ellipse cx="45" cy="23" fill="#F1F1F1" rx="11" ry="11" style="stroke:#181818;stroke-width:1.0;"/><path d="M44.7969,18.6719 L44.7969,22.2969 L45.7969,22.2969 Q47,22.2969 47.4844,21.8906 Q47.9688,21.4844 47.9688,20.4844 Q47.9688,19.4844 47.4844,19.0781 Q47,18.6719 45.7969,18.6719 L44.7969,18.6719 Z M42.3438,16.6094 L45.7031,16.6094 Q48.2656,16.6094 49.3906,17.5313 Q50.5156,18.4375 50.5156,20.4844 Q50.5156,22.5313 49.3906,23.4531 Q48.2656,24.3594 45.7031,24.3594 L44.7969,24.3594 L44.7969,29 L42.3438,29 L42.3438,16.6094 Z " fill="#000000"/><text fill="#000000" font-family="sans-serif" font-size="14" lengthAdjust="spacing" textLength="34" x="59" y="28.432">main</text><line style="stroke:#181818;stroke-width:0.5;" x1="31" x2="95" y1="39" y2="39"/><line style="stroke:#181818;stroke-width:0.5;" x1="31" x2="95" y1="47" y2="47"/></g><!--class items--><g id="elem_items"><rect codeLine="17" fill="#F1F1F1" height="86.1358" id="items" rx="2.5" ry="2.5" style="stroke:#181818;stroke-width:0.5;" width="69" x="28.5" y="472"/><ellipse cx="43.5" cy="488" fill="#ADD1B2" rx="11" ry="11" style="stroke:#181818;stroke-width:1.0;"/><path d="M46.4688,493.6406 Q45.8906,493.9375 45.25,494.0781 Q44.6094,494.2344 43.9063,494.2344 Q41.4063,494.2344 40.0781,492.5938 Q38.7656,490.9375 38.7656,487.8125 Q38.7656,484.6875 40.0781,483.0313 Q41.4063,481.375 43.9063,481.375 Q44.6094,481.375 45.25,481.5313 Q45.9063,481.6875 46.4688,481.9844 L46.4688,484.7031 Q45.8438,484.125 45.25,483.8594 Q44.6563,483.5781 44.0313,483.5781 Q42.6875,483.5781 42,484.6563 Q41.3125,485.7188 41.3125,487.8125 Q41.3125,489.9063 42,490.9844 Q42.6875,492.0469 44.0313,492.0469 Q44.6563,492.0469 45.25,491.7813 Q45.8438,491.5 46.4688,490.9219 L46.4688,493.6406 Z " fill="#000000"/><text fill="#000000" font-family="sans-serif" font-size="14" lengthAdjust="spacing" textLength="37" x="57.5" y="493.432">items</text><line style="stroke:#181818;stroke-width:0.5;" x1="29.5" x2="96.5" y1="504" y2="504"/><text fill="#000000" font-family="sans-serif" font-size="14" lengthAdjust="spacing" textLength="40" x="34.5" y="522.9659">lst list</text><line style="stroke:#181818;stroke-width:0.5;" x1="29.5" x2="96.5" y1="531.0679" y2="531.0679"/><text fill="#000000" font-family="sans-serif" font-size="14" lengthAdjust="spacing" textLength="56" x="34.5" y="550.0339">int size()</text></g><!--reverse link class1 to class2--><g id="link_class1_class2"><path codeLine="23" d="M63,276.02 C63,296.18 63,299.63 63,317.93 " fill="none" id="class1-backto-class2" style="stroke:#181818;stroke-width:1.0;"/><polygon fill="none" points="63,258.02,57,276.02,69,276.02,63,258.02" style="stroke:#181818;stroke-width:1.0;"/></g><!--link class2 to items--><g id="link_class2_items"><path codeLine="25" d="M111,368 C155.03,368 125.6917,423.66 96.9017,466.78 " fill="none" id="class2-to-items" style="stroke:#181818;stroke-width:1.0;"/><polygon fill="#181818" points="93.57,471.77,101.8942,466.5061,96.3464,467.6117,95.2409,462.0639,93.57,471.77" style="stroke:#181818;stroke-width:1.0;"/></g><!--reverse link main to class1--><g id="link_main_class1"><path codeLine="27" d="M63,73.31 C63,89.25 63,93.28 63,114.7 " fill="none" id="main-backto-class1" style="stroke:#181818;stroke-width:1.0;stroke-dasharray:7.0,7.0;"/><polygon fill="none" points="63,55.31,57,73.31,69,73.31,63,55.31" style="stroke:#181818;stroke-width:1.0;"/></g><!--SRC=[NP1D3i8W48Ntd69swg8chJjZNBdn01u0wQWOO1fcOkBVtMq1swGiIERbVUyD6AUPmGnt3My5_R51m0hwEaqiqOPh4feaN1pfRDYa-K6s1OzoexPUhiQ4h3IzybNAJ2rDQSdI4CCp9YDT92533hosuP-Gx2N0iO2pB2FDzeMPNS01Emmj1lE4Y4wBfQ3A8tUVgYghzCOJ8uCE93UCGESx6faHpNQRQwjgN_PTmD5t3Zq6ISQ969Rj6zRhygNg1m00]--></g></svg>